<svg xmlns="http://www.w3.org/2000/svg" xml:space="preserve" width="630px" height="630px"
    version="1.1"
    style="shape-rendering:geometricPrecision; text-rendering:geometricPrecision; image-rendering:optimizeQuality; fill-rule:evenodd; clip-rule:evenodd"
    viewBox="0 0 2152.63 2152.63"
    xmlns:xlink="http://www.w3.org/1999/xlink"
    xmlns:xodm="http://www.corel.com/coreldraw/odm/2003">
 <defs>
  <style type="text/css">
   <![CDATA[
    .fil3 {fill:none}
    .fil2 {fill:black}
    .fil1 {fill:#1F98F9}
    .fil0 {fill:white}
   ]]>
  </style>
 </defs>
 <g id="Layer_x0020_1">
  <metadata id="CorelCorpID_0Corel-Layer"/>
  <g id="_1659537841808">
   <path class="fil0" d="M410.83 372.29l1338.99 0c28.19,0 51.25,23.06 51.25,51.25l0 1168.15c0,28.19 -23.06,51.25 -51.25,51.25l-170.75 0 0 129.09 -996.05 0 0 -129.09 -172.19 0c-28.19,0 -51.25,-23.06 -51.25,-51.25l0 -1168.15c0,-28.19 23.06,-51.25 51.25,-51.25z"/>
   <path class="fil1" d="M807.86 385.3l965.37 0 0 202.78 -965.37 0 0 -202.78zm226.23 1160.71l85.47 0 0 85.48 -85.47 0 0 -85.48zm250.98 -250l85.48 0 0 85.48 -85.48 0 0 -85.48z"/>
   <path class="fil2" d="M1725.27 344.04l-1297.92 0c-53.64,0 -97.29,43.65 -97.29,97.29l0 1143.2c0,53.64 43.65,97.29 97.29,97.29l155.67 0 0 -58.3 -155.67 0c-21.5,0 -38.99,-17.49 -38.99,-39l0 -961.76 1375.9 0 0 961.76c0,21.51 -17.49,39 -38.99,39l-146.2 0 0 58.3 146.2 0c53.64,0 97.29,-43.65 97.29,-97.29l0 -1143.2c0,-53.64 -43.65,-97.29 -97.29,-97.29zm-1336.91 97.29c0,-21.5 17.49,-38.99 38.99,-38.99l1297.92 0c21.5,0 38.99,17.49 38.99,38.99l0 123.13 -1375.9 0 0 -123.13z"/>
   <path class="fil2" d="M1673.6 478.05c-0.38,-1.87 -0.93,-3.7 -1.66,-5.45 -0.73,-1.78 -1.63,-3.47 -2.68,-5.04 -1.08,-1.61 -2.3,-3.1 -3.64,-4.43 -1.34,-1.35 -2.83,-2.57 -4.43,-3.62 -1.58,-1.05 -3.27,-1.95 -5.02,-2.68 -1.78,-0.73 -3.61,-1.28 -5.45,-1.66 -3.76,-0.76 -7.64,-0.76 -11.4,0 -1.86,0.38 -3.7,0.93 -5.45,1.66 -1.78,0.73 -3.47,1.63 -5.04,2.68 -1.6,1.05 -3.09,2.27 -4.43,3.62 -1.34,1.33 -2.57,2.82 -3.62,4.43 -1.04,1.57 -1.95,3.26 -2.68,5.04 -0.73,1.75 -1.28,3.58 -1.66,5.45 -0.38,1.86 -0.58,3.79 -0.58,5.69 0,1.92 0.2,3.81 0.58,5.71 0.38,1.83 0.93,3.67 1.66,5.45 0.73,1.75 1.64,3.44 2.68,5.01 1.05,1.61 2.28,3.09 3.62,4.43 1.34,1.37 2.83,2.57 4.43,3.65 1.57,1.04 3.26,1.95 5.04,2.68 1.75,0.73 3.59,1.28 5.45,1.66 1.87,0.38 3.79,0.55 5.69,0.55 1.89,0 3.81,-0.17 5.71,-0.55 1.84,-0.38 3.67,-0.93 5.45,-1.66 1.75,-0.73 3.44,-1.64 5.02,-2.68 1.6,-1.08 3.09,-2.28 4.43,-3.65 5.42,-5.42 8.54,-12.94 8.54,-20.6 0,-1.9 -0.18,-3.83 -0.56,-5.69z"/>
   <path class="fil2" d="M1534.57 454.59l-572.18 0c-16.1,0 -29.15,13.05 -29.15,29.15 0,16.1 13.05,29.15 29.15,29.15l572.18 0c16.09,0 29.15,-13.05 29.15,-29.15 0,-16.1 -13.06,-29.15 -29.15,-29.15z"/>
   <path class="fil2" d="M643.78 478.05c-0.38,-1.87 -0.93,-3.7 -1.66,-5.45 -0.73,-1.75 -1.64,-3.47 -2.68,-5.04 -1.08,-1.61 -2.28,-3.1 -3.62,-4.43 -1.37,-1.35 -2.86,-2.57 -4.43,-3.62 -1.6,-1.05 -3.29,-1.95 -5.04,-2.68 -1.75,-0.73 -3.59,-1.28 -5.45,-1.66 -3.77,-0.76 -7.64,-0.76 -11.4,0 -1.87,0.38 -3.71,0.93 -5.45,1.66 -1.75,0.73 -3.44,1.63 -5.05,2.68 -1.57,1.05 -3.09,2.27 -4.43,3.62 -1.34,1.33 -2.56,2.82 -3.61,4.43 -1.05,1.57 -1.95,3.29 -2.68,5.04 -0.73,1.75 -1.29,3.58 -1.67,5.45 -0.38,1.86 -0.58,3.79 -0.58,5.69 0,1.92 0.21,3.81 0.58,5.71 0.38,1.83 0.93,3.67 1.67,5.45 0.73,1.75 1.63,3.44 2.68,5.01 1.05,1.61 2.27,3.09 3.61,4.43 1.34,1.35 2.86,2.57 4.43,3.65 1.61,1.04 3.3,1.95 5.05,2.68 1.74,0.73 3.58,1.28 5.45,1.66 1.89,0.38 3.79,0.55 5.68,0.55 1.93,0 3.82,-0.17 5.72,-0.55 1.86,-0.38 3.7,-0.93 5.45,-1.66 1.75,-0.73 3.44,-1.64 5.04,-2.68 1.57,-1.08 3.06,-2.3 4.43,-3.65 1.34,-1.34 2.54,-2.82 3.62,-4.43 1.04,-1.57 1.95,-3.26 2.68,-5.01 0.73,-1.78 1.28,-3.62 1.66,-5.45 0.38,-1.9 0.55,-3.79 0.55,-5.71 0,-1.9 -0.17,-3.83 -0.55,-5.69z"/>
   <path class="fil2" d="M751.34 478.05c-0.35,-1.87 -0.93,-3.7 -1.66,-5.45 -0.73,-1.78 -1.63,-3.47 -2.68,-5.04 -1.05,-1.61 -2.27,-3.1 -3.61,-4.43 -1.35,-1.35 -2.83,-2.57 -4.44,-3.62 -1.57,-1.05 -3.26,-1.95 -5.04,-2.68 -1.75,-0.73 -3.58,-1.28 -5.45,-1.66 -3.76,-0.76 -7.64,-0.76 -11.37,0 -1.86,0.38 -3.7,0.93 -5.45,1.66 -1.78,0.73 -3.47,1.63 -5.04,2.68 -1.61,1.05 -3.09,2.27 -4.43,3.62 -1.34,1.33 -2.57,2.82 -3.62,4.43 -1.08,1.57 -1.95,3.26 -2.68,5.04 -0.73,1.75 -1.31,3.58 -1.66,5.45 -0.38,1.86 -0.58,3.79 -0.58,5.69 0,1.89 0.2,3.81 0.58,5.71 0.35,1.83 0.93,3.67 1.66,5.45 0.73,1.75 1.6,3.44 2.68,5.01 1.05,1.61 2.28,3.09 3.62,4.43 1.34,1.37 2.82,2.57 4.43,3.65 1.57,1.04 3.26,1.95 5.04,2.68 1.75,0.73 3.59,1.28 5.45,1.66 1.87,0.38 3.79,0.55 5.69,0.55 1.89,0 3.81,-0.17 5.68,-0.55 1.87,-0.38 3.7,-0.93 5.45,-1.66 1.78,-0.73 3.47,-1.64 5.04,-2.68 1.61,-1.08 3.09,-2.28 4.44,-3.65 1.34,-1.34 2.56,-2.82 3.61,-4.43 1.05,-1.57 1.95,-3.26 2.68,-5.01 0.73,-1.78 1.31,-3.62 1.66,-5.45 0.38,-1.9 0.59,-3.82 0.59,-5.71 0,-1.9 -0.21,-3.83 -0.59,-5.69z"/>
   <path class="fil2" d="M536.18 478.05c-0.38,-1.87 -0.93,-3.7 -1.66,-5.45 -0.73,-1.78 -1.63,-3.47 -2.68,-5.04 -1.05,-1.61 -2.27,-3.1 -3.62,-4.43 -6.76,-6.77 -16.82,-9.89 -26.32,-7.96 -1.83,0.38 -3.67,0.93 -5.45,1.66 -1.75,0.73 -3.44,1.63 -5.01,2.68 -1.61,1.05 -3.09,2.27 -4.43,3.62 -1.35,1.33 -2.57,2.82 -3.65,4.43 -1.05,1.57 -1.95,3.26 -2.68,5.04 -0.73,1.75 -1.28,3.58 -1.66,5.45 -0.38,1.86 -0.56,3.79 -0.56,5.69 0,7.69 3.12,15.18 8.55,20.6 5.42,5.45 12.94,8.54 20.6,8.54 7.67,0 15.19,-3.09 20.61,-8.54 5.43,-5.42 8.55,-12.91 8.55,-20.6 0,-1.9 -0.21,-3.83 -0.59,-5.69z"/>
   <path class="fil2" d="M1517.76 862.94l-31.39 0 0 -31.38c0,-51.91 -42.23,-94.15 -94.14,-94.15 -51.91,0 -94.15,42.24 -94.15,94.15l0 31.38 -443.53 0 0 -31.38c0,-51.91 -42.23,-94.15 -94.15,-94.15 -51.91,0 -94.14,42.24 -94.14,94.15l0 31.38 -31.38 0c-51.92,0 -94.15,42.24 -94.15,94.15l0 757.35c0,51.91 42.23,94.14 94.15,94.14l882.88 0c51.91,0 94.14,-42.23 94.14,-94.14l0 -757.35c0,-51.91 -42.23,-94.15 -94.14,-94.15zm-156.91 -31.38c0,-17.3 14.07,-31.38 31.38,-31.38 17.3,0 31.38,14.08 31.38,31.38l0 125.53c0,17.3 -14.08,31.38 -31.38,31.38 -17.31,0 -31.38,-14.08 -31.38,-31.38l0 -125.53zm-631.83 0c0,-17.3 14.08,-31.38 31.38,-31.38 17.31,0 31.39,14.08 31.39,31.38l0 125.53c0,17.3 -14.08,31.38 -31.39,31.38 -17.3,0 -31.38,-14.08 -31.38,-31.38l0 -125.53zm820.12 882.88c0,17.31 -14.08,31.38 -31.38,31.38l-882.88 0c-17.31,0 -31.39,-14.07 -31.39,-31.38l0 -533.49 945.65 0 0 533.49zm0 -596.26l-945.65 0 0 -161.09c0,-17.31 14.08,-31.38 31.39,-31.38l31.38 0 0 31.38c0,51.91 42.23,94.14 94.14,94.14 51.92,0 94.15,-42.23 94.15,-94.14l0 -31.38 443.53 0 0 31.38c0,51.91 42.23,94.14 94.15,94.14 51.91,0 94.14,-42.23 94.14,-94.14l0 -31.38 31.39 0c17.3,0 31.38,14.07 31.38,31.38l0 161.09z"/>
   <path class="fil2" d="M888.02 1243.71l-125.52 0c-17.33,0 -31.39,14.05 -31.39,31.38l0 125.53c0,17.33 14.06,31.38 31.39,31.38l125.52 0c17.33,0 31.39,-14.05 31.39,-31.38l0 -125.53c0,-17.33 -14.06,-31.38 -31.39,-31.38zm-104.92 52.3l85.47 0 0 85.48 -85.47 0 0 -85.48z"/>
   <path class="fil2" d="M888.02 1494.77l-125.52 0c-17.33,0 -31.39,14.05 -31.39,31.38l0 125.53c0,17.33 14.06,31.38 31.39,31.38l125.52 0c17.33,0 31.39,-14.05 31.39,-31.38l0 -125.53c0,-17.33 -14.06,-31.38 -31.39,-31.38zm-104.92 51.24l85.47 0 0 85.48 -85.47 0 0 -85.48z"/>
   <path class="fil2" d="M1139.08 1494.77l-125.53 0c-17.33,0 -31.38,14.05 -31.38,31.38l0 125.53c0,17.33 14.05,31.38 31.38,31.38l125.53 0c17.33,0 31.38,-14.05 31.38,-31.38l0 -125.53c0,-17.33 -14.05,-31.38 -31.38,-31.38zm-104.99 51.24l85.47 0 0 85.48 -85.47 0 0 -85.48z"/>
   <path class="fil2" d="M1139.08 1243.71l-125.53 0c-17.33,0 -31.38,14.05 -31.38,31.38l0 125.53c0,17.33 14.05,31.38 31.38,31.38l125.53 0c17.33,0 31.38,-14.05 31.38,-31.38l0 -125.53c0,-17.33 -14.05,-31.38 -31.38,-31.38zm-104.99 52.3l85.47 0 0 85.48 -85.47 0 0 -85.48z"/>
   <path class="fil2" d="M1390.13 1243.71l-125.52 0c-17.33,0 -31.38,14.05 -31.38,31.38l0 125.53c0,17.33 14.05,31.38 31.38,31.38l125.52 0c17.34,0 31.39,-14.05 31.39,-31.38l0 -125.53c0,-17.33 -14.05,-31.38 -31.39,-31.38zm-105.06 52.3l85.48 0 0 85.48 -85.48 0 0 -85.48z"/>
   <path class="fil2" d="M1390.13 1494.77l-125.52 0c-17.33,0 -31.38,14.05 -31.38,31.38l0 125.53c0,17.33 14.05,31.38 31.38,31.38l125.52 0c17.34,0 31.39,-14.05 31.39,-31.38l0 -125.53c0,-17.33 -14.05,-31.38 -31.39,-31.38zm-105.06 51.24l85.48 0 0 85.48 -85.48 0 0 -85.48z"/>
  </g>
  <rect class="fil3" width="2152.63" height="2152.63"/>
 </g>
</svg>