<svg xmlns="http://www.w3.org/2000/svg" aria-hidden="true"
  style="position:absolute;width:0;height:0;overflow:hidden">
  <defs>
    <symbol id="icon-x" viewBox="0 0 32 32">
      <path stroke-linecap="round" stroke-linejoin="round" d="M24 8 8 24M8 8l16 16" />
    </symbol>

    <symbol id="icon-star" viewBox="0 0 32 32">
      <path
        d="M12.4 9.394 16 2.572l3.6 6.822a2.2 2.2 0 0 0 1.571 1.141l7.601 1.315-5.376 5.532a2.2 2.2 0 0 0-.6 1.846l1.098 7.635-6.922-3.404a2.199 2.199 0 0 0-1.941 0l-6.922 3.404 1.098-7.635a2.2 2.2 0 0 0-.6-1.846L3.231 11.85l7.601-1.315a2.202 2.202 0 0 0 1.571-1.141zm16.635 2.185zM7.767 27.031z" />
    </symbol>

    <symbol id="icon-arrow-left" viewBox="0 0 32 32">
      <path
        d="M20.943 5.724a1.333 1.333 0 0 1 0 1.886l-8.391 8.391 8.391 8.391a1.333 1.333 0 1 1-1.886 1.886l-9.333-9.333a1.333 1.333 0 0 1 0-1.886l9.333-9.333a1.333 1.333 0 0 1 1.886 0z" />
    </symbol>

    <symbol id="icon-arrow-right" viewBox="0 0 32 32">
      <path
        d="M11.057 26.276a1.333 1.333 0 0 1 0-1.886l8.391-8.391-8.391-8.391a1.333 1.333 0 1 1 1.886-1.886l9.333 9.333a1.333 1.333 0 0 1 0 1.886l-9.333 9.333a1.333 1.333 0 0 1-1.886 0z" />
    </symbol>

    <symbol id="icon-heart" viewBox="0 0 32 32">
      <path stroke-linecap="round" stroke-linejoin="round"
        d="M27.787 6.147a7.326 7.326 0 0 0-10.373 0L16.001 7.56l-1.413-1.413a7.333 7.333 0 0 0-10.374 0 7.333 7.333 0 0 0 0 10.374l11.787 11.787 11.787-11.787a7.345 7.345 0 0 0 2.15-5.187 7.33 7.33 0 0 0-2.15-5.187z" />
    </symbol>

    <symbol id="icon-calendar" viewBox="0 0 32 32">
      <path stroke-linecap="round" stroke-linejoin="round"
        d="M25.333 5.333H6.666A2.667 2.667 0 0 0 3.999 8v18.667a2.667 2.667 0 0 0 2.667 2.667h18.667A2.667 2.667 0 0 0 28 26.667V8a2.667 2.667 0 0 0-2.667-2.667zm-4-2.666V8M10.667 2.667V8M4 13.333h24" />
    </symbol>

  </defs>
</svg>